<?xml version="1.0" encoding="UTF-8" standalone="no"?><svg xmlns="http://www.w3.org/2000/svg" xmlns:xlink="http://www.w3.org/1999/xlink"><symbol viewBox="0 0 24 24" id="active" xmlns="http://www.w3.org/2000/svg"><path d="M11.622 15.183l-3.399-2.267.554-.832 2.601 1.734 3.718-5.112.808.588-4.282 5.889zM12 5.75a6 6 0 000 12 6 6 0 000-12z" fill-rule="evenodd"/></symbol><symbol viewBox="0 0 24 24" id="arrow-right" xmlns="http://www.w3.org/2000/svg"><path d="M9.648 6.65l-.708.706.353.355 4.354 4.352-4.354 4.354-.353.353.708.708.353-.353 4.399-4.4.661-.662-.353-.353-4.707-4.707z" fill-rule="evenodd"/></symbol><symbol viewBox="0 0 24 24" id="help-12" xmlns="http://www.w3.org/2000/svg"><path d="M12 5.75a6 6 0 000 12 6 6 0 000-12zm-1.815 2.809c.457-.486 1.083-.729 1.88-.729.737 0 1.327.208 1.77.623.443.416.665.948.665 1.593 0 .392-.08.71-.24.954-.161.243-.49.602-.989 1.075-.362.343-.598.634-.707.873-.11.237-.164.59-.164 1.055h-.987c0-.528.063-.953.188-1.277.126-.323.405-.693.839-1.111l.452-.438a1.89 1.89 0 00.33-.393 1.428 1.428 0 00-.101-1.69c-.22-.266-.586-.4-1.095-.4-.63 0-1.066.23-1.307.688-.136.254-.213.622-.232 1.102H9.5c0-.797.23-1.44.685-1.925zM11.5 15h1v1h-1v-1z" fill-rule="evenodd"/></symbol></svg>